<svg xmlns="http://www.w3.org/2000/svg" xmlns:xlink="http://www.w3.org/1999/xlink" width="364" height="48.504" viewBox="0 0 364 48.504">
  <defs>
    <clipPath id="clip-path">
      <path id="Pfad_103" data-name="Pfad 103" d="M0,11.826H364v-48.5H0Z" fill="currentColor" />
    </clipPath>
  </defs>
  <g id="Gruppe_29" data-name="Gruppe 29" transform="translate(0 36.678)" clip-path="url(#clip-path)">
    <g id="Gruppe_9" data-name="Gruppe 9" transform="translate(59.474 -22.471)">
      <path id="Pfad_83" data-name="Pfad 83" d="M.745,8.221h0A3.062,3.062,0,0,1-2.309,5.167v-27.61A3.062,3.062,0,0,1,.745-25.5,3.062,3.062,0,0,1,3.8-22.442V5.167A3.062,3.062,0,0,1,.745,8.221" transform="translate(2.309 25.496)" fill="currentColor"/>
    </g>
    <g id="Gruppe_10" data-name="Gruppe 10" transform="translate(58.498 -35.904)">
      <path id="Pfad_84" data-name="Pfad 84" d="M.982,1.965h0A4.038,4.038,0,0,1-3.047-2.064,4.039,4.039,0,0,1,.982-6.095,4.039,4.039,0,0,1,5.012-2.064,4.038,4.038,0,0,1,.982,1.965" transform="translate(3.047 6.095)" fill="currentColor"/>
    </g>
    <g id="Gruppe_11" data-name="Gruppe 11" transform="translate(190.666 -22.389)">
      <path id="Pfad_85" data-name="Pfad 85" d="M4.141,6.883A11.25,11.25,0,0,1-7.1-4.363,11.249,11.249,0,0,1,4.141-15.607,11.249,11.249,0,0,1,15.387-4.363,11.25,11.25,0,0,1,4.141,6.883m0-28.231A16.983,16.983,0,0,0-12.844-4.363,16.982,16.982,0,0,0,4.141,12.623,16.982,16.982,0,0,0,21.127-4.363,16.983,16.983,0,0,0,4.141-21.348" transform="translate(12.844 21.348)" fill="currentColor"/>
    </g>
    <g id="Gruppe_12" data-name="Gruppe 12" transform="translate(108.222 -23.315)">
      <path id="Pfad_86" data-name="Pfad 86" d="M.745,0A3.053,3.053,0,1,1-2.309,3.054,3.054,3.054,0,0,1,.745,0" transform="translate(2.309 0)" fill="currentColor"/>
    </g>
    <g id="Gruppe_13" data-name="Gruppe 13" transform="translate(293.687 -8.456)">
      <path id="Pfad_87" data-name="Pfad 87" d="M.745,0A3.053,3.053,0,1,1-2.309,3.054,3.054,3.054,0,0,1,.745,0" transform="translate(2.309 0)" fill="currentColor"/>
    </g>
    <g id="Gruppe_14" data-name="Gruppe 14" transform="translate(307.263 -22.857)">
      <path id="Pfad_88" data-name="Pfad 88" d="M.745,0A3.053,3.053,0,1,1-2.309,3.054,3.054,3.054,0,0,1,.745,0" transform="translate(2.309 0)" fill="currentColor"/>
    </g>
    <g id="Gruppe_15" data-name="Gruppe 15" transform="translate(307.264 5.792)">
      <path id="Pfad_89" data-name="Pfad 89" d="M1.489.665A3.05,3.05,0,0,1-1.565,3.718,3.049,3.049,0,0,1-4.617.665,2.788,2.788,0,0,1-1.565-2.062,2.788,2.788,0,0,1,1.489.665" transform="translate(4.617 2.062)" fill="currentColor"/>
    </g>
    <g id="Gruppe_16" data-name="Gruppe 16" transform="translate(77.468 -23.328)">
      <path id="Pfad_90" data-name="Pfad 90" d="M8.26,0A13.992,13.992,0,0,0-2.069,4.42,13.98,13.98,0,0,0-12.4,0c-15.245,0-13.119,16.14-13.119,16.14V31.512a3.062,3.062,0,0,0,3.053,3.052,3.062,3.062,0,0,0,3.054-3.052V12.623C-19,9.65-17.447,6.12-12.4,6.12c7.937,0,7.4,8.721,7.287,9.9,0,.05-.011.091-.011.132V31.521a3.062,3.062,0,0,0,3.054,3.053A3.062,3.062,0,0,0,.984,31.521V16.154c0-.052-.011-.091-.011-.132C.861,14.841.332,6.12,8.26,6.12c5.15,0,6.686,3.5,7.083,6.361V31.512a3.054,3.054,0,0,0,6.107,0V16.144a2.913,2.913,0,0,0-.032-.315C21.613,13.59,22.254,0,8.26,0" transform="translate(25.619 0.01)" fill="currentColor"/>
    </g>
    <g id="Gruppe_17" data-name="Gruppe 17" transform="translate(134.896 -23.328)">
      <path id="Pfad_91" data-name="Pfad 91" d="M8.26,0A13.992,13.992,0,0,0-2.069,4.42,13.98,13.98,0,0,0-12.4,0c-15.245,0-13.119,16.14-13.119,16.14V31.512a3.062,3.062,0,0,0,3.053,3.052,3.062,3.062,0,0,0,3.054-3.052V12.623C-19,9.65-17.447,6.12-12.4,6.12c7.937,0,7.4,8.721,7.287,9.9,0,.05-.011.091-.011.132V31.521a3.062,3.062,0,0,0,3.054,3.053A3.062,3.062,0,0,0,.984,31.521V16.154c0-.052-.011-.091-.011-.132C.861,14.841.332,6.12,8.26,6.12c5.15,0,6.686,3.5,7.083,6.361V31.512a3.054,3.054,0,0,0,6.107,0V16.144a2.913,2.913,0,0,0-.032-.315C21.622,13.59,22.264,0,8.26,0" transform="translate(25.619 0.01)" fill="currentColor"/>
    </g>
    <g id="Gruppe_18" data-name="Gruppe 18" transform="translate(229.684 -32.749)">
      <path id="Pfad_92" data-name="Pfad 92" d="M4.429,9.238c-5.973,0-6.391-5.893-6.391-5.893V-11.533H3.564A2.777,2.777,0,0,0,6.332-14.3a2.777,2.777,0,0,0-2.768-2.768H-1.962V-25.6a3.062,3.062,0,0,0-3.054-3.054A3.062,3.062,0,0,0-8.068-25.6v8.528h-2.9A2.777,2.777,0,0,0-13.737-14.3a2.778,2.778,0,0,0,2.768,2.768h2.9V3.345c0,12.529,12.5,12,12.5,12a3.053,3.053,0,1,0,0-6.106" transform="translate(13.737 28.651)" fill="currentColor"/>
    </g>
    <g id="Gruppe_19" data-name="Gruppe 19" transform="translate(255.748 -22.312)">
      <path id="Pfad_93" data-name="Pfad 93" d="M4.174,0S-12.944,0-12.944,16.9c0,16.985,17.087,16.976,17.087,16.976,7.267,0,10.98-3.634,10.98-3.634l.123-.1c.834-.824,1.608-1.485,1.608-2.675A3.049,3.049,0,0,0,13.8,24.416a3.089,3.089,0,0,0-1.517.417l-.009-.009a.169.169,0,0,0-.052.04,3.286,3.286,0,0,0-.7.581,10.565,10.565,0,0,1-6.686,2.412H4.143c-.916,0-10.9-.366-10.991-10.96-.1-11.6,10.98-11.348,10.98-11.348,10.554-.295,10.422,8.294,10.422,8.294H4.622a3.053,3.053,0,1,0,0,6.106h13.26a3.2,3.2,0,0,0,3.073-3.2C20.966-.762,4.174,0,4.174,0" transform="translate(12.944 0.004)" fill="currentColor"/>
    </g>
    <g id="Gruppe_20" data-name="Gruppe 20" transform="translate(293.697 -22.847)">
      <path id="Pfad_94" data-name="Pfad 94" d="M6.27,6.238a3.036,3.036,0,0,0-2.1.845s-.021.02-.041.041a.33.33,0,0,0-.03.03c-.377.366-2.341,2.025-6.92,2.146C-13.4,9.3-13.341-1.894-13.341-1.894S-13.992-13.24-2.817-13.24a8.9,8.9,0,0,1,7.49,3.022c.041.041.071.082.111.122a3.042,3.042,0,0,0,2.138.875,3.048,3.048,0,0,0,3.052-3.052A3.022,3.022,0,0,0,8.52-14.859l.009-.011A16.5,16.5,0,0,0-2.817-19.347s-16.63.184-16.63,17.453c0,16.935,16.63,16.976,16.63,16.976A18.865,18.865,0,0,0,7.859,11.9a3.708,3.708,0,0,0,.4-.286c.04-.03.071-.05.111-.081l-.009-.011A3.053,3.053,0,0,0,6.27,6.238" transform="translate(19.447 19.347)" fill="currentColor"/>
    </g>
    <g id="Gruppe_21" data-name="Gruppe 21" transform="translate(345.457 -22.857)">
      <path id="Pfad_95" data-name="Pfad 95" d="M.745,0A3.053,3.053,0,1,1-2.309,3.054,3.054,3.054,0,0,1,.745,0" transform="translate(2.309 0)" fill="currentColor"/>
    </g>
    <g id="Gruppe_22" data-name="Gruppe 22" transform="translate(332.604 -36.677)">
      <path id="Pfad_96" data-name="Pfad 96" d="M7.655,7.146c0-15.733-15.49-15.49-15.49-15.49-6.767,0-9.8,3.054-9.8,3.054V-19.111a3.061,3.061,0,0,0-3.052-3.052,3.061,3.061,0,0,0-3.053,3.052V22.677a3.062,3.062,0,0,0,3.053,3.052,3.062,3.062,0,0,0,3.052-3.052V5.172c0-8.009,9.8-7.408,9.8-7.408,9.8,0,9.211,9.556,9.211,9.556V22.686A3.062,3.062,0,0,0,4.428,25.74H4.6a3.062,3.062,0,0,0,3.054-3.053V7.319a1.1,1.1,0,0,0-.02-.173Z" transform="translate(23.741 22.163)" fill="currentColor"/>
    </g>
    <g id="Gruppe_23" data-name="Gruppe 23" transform="translate(20.71 -22.501)">
      <path id="Pfad_97" data-name="Pfad 97" d="M0,.859,15.113,4.37V1.907L0-2.663Z" transform="translate(0 2.663)" fill="currentColor"/>
    </g>
    <g id="Gruppe_24" data-name="Gruppe 24" transform="translate(23.641 6.056)">
      <path id="Pfad_98" data-name="Pfad 98" d="M.643,0l-1.6.1A1.042,1.042,0,0,0-1.993,1.14V5.648a23.769,23.769,0,0,0,3.42-.315V1.14C1.427.57,1.213,0,.643,0" transform="translate(1.993)" fill="currentColor"/>
    </g>
    <g id="Gruppe_25" data-name="Gruppe 25" transform="translate(20.71 -15.509)">
      <path id="Pfad_99" data-name="Pfad 99" d="M0,.856l15.113,1.8V-.152L0-2.655Z" transform="translate(0 2.655)" fill="currentColor"/>
    </g>
    <g id="Gruppe_26" data-name="Gruppe 26" transform="translate(20.71 -8.833)">
      <path id="Pfad_100" data-name="Pfad 100" d="M0,.856,15.113,1.6V-1.556L0-2.655Z" transform="translate(0 2.655)" fill="currentColor"/>
    </g>
    <g id="Gruppe_27" data-name="Gruppe 27" transform="translate(0.001 -34.662)">
      <path id="Pfad_101" data-name="Pfad 101" d="M5.655,0A23.2,23.2,0,0,0-17.538,23.193,23.114,23.114,0,0,0-8.776,41.339V12.518L.362,5.485l18.624,7.033V42.153A23.185,23.185,0,0,0,5.655,0" transform="translate(17.538)" fill="currentColor"/>
    </g>
    <g id="Gruppe_28" data-name="Gruppe 28" transform="translate(20.71 -2.503)">
      <path id="Pfad_102" data-name="Pfad 102" d="M0,.941,15.113.279V-2.8L0-2.917Z" transform="translate(0 2.917)" fill="currentColor"/>
    </g>
  </g>
</svg>
